<svg width="294" height="291" viewBox="0 0 294 291" fill="none" xmlns="http://www.w3.org/2000/svg">
<path d="M292.238 0.921022C294.54 5.3582 294.154 8.2185 293.183 13.0538C293.047 13.7501 292.911 14.4464 292.77 15.1638C292.316 17.4612 291.84 19.7534 291.363 22.046C291.034 23.6663 290.707 25.2868 290.38 26.9074C289.36 31.9178 288.304 36.9202 287.238 41.921C287.076 42.682 286.915 43.443 286.748 44.2271C275.454 97.3079 261.448 155.268 229.238 199.921C228.518 200.925 227.799 201.929 227.058 202.964C222.78 208.803 218.268 214.294 213.359 219.612C211.408 221.736 209.538 223.908 207.675 226.109C204.164 230.116 200.363 233.556 196.238 236.921C194.851 238.064 194.851 238.064 193.437 239.23C155.955 269.464 106.663 278.27 60.5502 286.984C59.3636 287.212 59.3636 287.212 58.1531 287.445C49.1379 289.167 40.4595 290.393 31.2377 289.921C31.604 283.637 33.691 280.141 37.4252 275.171C37.9577 274.441 38.4902 273.712 39.0388 272.96C40.1768 271.405 41.3207 269.853 42.4702 268.306C44.2282 265.934 45.9621 263.545 47.6909 261.151C54.7025 251.48 62.0002 242.104 69.6113 232.899C71.2957 230.85 72.9623 228.788 74.6245 226.722C80.6319 219.257 86.7607 211.987 93.2377 204.921C94.4087 203.591 95.5756 202.258 96.7377 200.921C103.945 192.656 111.359 184.575 118.783 176.505C120.265 174.891 121.742 173.274 123.218 171.655C128.059 166.363 132.947 161.149 138.05 156.109C141.731 152.47 145.2 148.747 148.566 144.819C152.647 140.186 157.049 135.931 161.742 131.925C167.529 126.89 172.852 121.377 178.238 115.921C180.318 113.814 182.401 111.709 184.488 109.609C184.986 109.107 185.485 108.605 185.998 108.088C189.401 104.69 192.91 101.482 196.617 98.421C198.452 96.7229 199.878 95.0196 201.238 92.921C201.021 90.713 201.021 90.713 200.238 88.921C175.225 98.2899 151.902 121.901 131.554 138.715C127.576 142.002 123.576 145.256 119.55 148.484C113.954 153.047 108.721 157.976 103.46 162.917C101.018 165.208 98.5339 167.433 95.9877 169.609C91.8551 173.151 88.112 177.061 84.3393 180.98C82.2377 182.921 82.2377 182.921 80.2377 182.921C80.2377 183.581 80.2377 184.241 80.2377 184.921C78.7338 186.401 78.7338 186.401 76.6752 188.109C70.7264 193.176 65.3911 198.538 60.4995 204.636C59.8749 205.272 59.8749 205.272 59.2377 205.921C58.5777 205.921 57.9177 205.921 57.2377 205.921C57.025 206.462 56.8123 207.004 56.5932 207.562C54.7475 210.774 52.1977 213.126 49.5502 215.671C44.8815 220.253 40.4622 224.923 36.2377 229.921C35.3142 230.993 34.3896 232.065 33.4643 233.136C22.403 245.746 22.403 245.746 12.3002 259.109C11.6196 260.037 10.939 260.965 10.2377 261.921C9.57773 261.921 8.91773 261.921 8.23773 261.921C7.90773 262.911 7.57773 263.901 7.23773 264.921C4.86273 265.546 4.86273 265.546 2.23773 265.921C0.237732 263.921 0.237747 263.921 0 261.688C0.0884722 255.196 0.56442 248.882 1.44476 242.452C1.57082 241.492 1.69687 240.531 1.82675 239.542C2.09331 237.521 2.36325 235.501 2.63641 233.482C3.04535 230.457 3.44426 227.431 3.84125 224.405C5.18551 214.247 6.60744 204.11 8.33316 194.008C9.00986 189.932 9.37348 186.053 9.23773 181.921C9.89773 181.921 10.5577 181.921 11.2377 181.921C11.2744 181.348 11.311 180.775 11.3488 180.184C14.5438 140.356 34.7508 100.348 62.2377 71.921C63.122 70.9852 64.0063 70.0493 64.9174 69.0851C115.52 16.7228 197.967 3.14329 267.425 0.233522C268.524 0.184941 269.622 0.136359 270.754 0.0863055C277.991 -0.171492 285.037 0.160254 292.238 0.921022Z" fill="#18DD81"/>
<path d="M199.238 95.9209C200.228 96.4159 200.228 96.4159 201.238 96.9209C198.409 99.7794 195.574 102.632 192.738 105.483C191.946 106.283 191.155 107.083 190.339 107.907C189.553 108.697 188.767 109.486 187.957 110.3C186.888 111.376 186.888 111.376 185.798 112.474C183.771 114.412 181.717 116.244 179.592 118.069C174.451 122.538 169.668 127.347 164.859 132.167C163.878 133.147 162.898 134.127 161.917 135.106C159.874 137.148 157.833 139.191 155.793 141.236C153.199 143.835 150.6 146.431 148 149.025C145.978 151.043 143.958 153.064 141.939 155.086C140.523 156.503 139.105 157.918 137.687 159.333C130.898 166.146 124.572 173.218 118.5 180.671C117.238 181.921 117.238 181.921 115.238 181.921C115.02 182.455 114.802 182.988 114.578 183.538C112.757 186.776 110.318 189.347 107.8 192.046C107.31 192.583 106.819 193.121 106.314 193.675C104.064 196.11 102.009 198.073 99.2378 199.921C100.557 197.051 102.009 194.833 104.113 192.483C104.735 191.787 105.358 191.091 106 190.374C109.669 186.352 113.355 182.346 117.058 178.354C119.145 176.105 121.223 173.847 123.292 171.581C128.11 166.314 132.971 161.125 138.05 156.108C141.731 152.47 145.2 148.747 148.566 144.819C152.647 140.186 157.049 135.931 161.742 131.925C167.529 126.89 172.852 121.377 178.238 115.921C184.717 109.357 191.192 102.886 198.238 96.9209C198.568 96.5909 198.898 96.2609 199.238 95.9209Z" fill="#18DD81"/>
<path d="M88.2377 49.9209C88.8977 50.2509 89.5577 50.5809 90.2377 50.9209C89.5516 51.4785 89.5516 51.4785 88.8517 52.0474C70.9098 66.3051 70.9098 66.3051 55.2377 82.9209C54.8035 83.4646 54.3692 84.0082 53.9218 84.5684C42.7723 98.6421 34.5444 113.569 27.2377 129.921C26.4005 127.546 26.1215 126.284 26.8993 123.853C27.2662 123.125 27.6331 122.397 28.0112 121.647C28.4194 120.829 28.8276 120.011 29.2482 119.168C29.6985 118.303 30.1488 117.437 30.6127 116.546C31.0688 115.654 31.5249 114.762 31.9948 113.844C44.1207 90.5044 63.9357 62.0719 88.2377 49.9209Z" fill="#18DD81"/>
<path d="M192.238 236.921C193.228 237.416 193.228 237.416 194.238 237.921C188.395 243.569 182.01 247.849 174.985 251.909C173.296 252.887 171.62 253.888 169.945 254.89C158.339 261.499 145.857 265.662 133.238 269.921C132.485 270.18 131.732 270.438 130.957 270.705C124.945 272.76 119.624 274.515 113.238 273.921C115.493 271.666 116.574 271.408 119.613 270.659C120.953 270.317 120.953 270.317 122.321 269.968C123.284 269.726 124.246 269.483 125.238 269.233C149.075 262.957 173.143 252.785 192.238 236.921Z" fill="#18DD81"/>
<path d="M15.2378 162.921C16.3618 166.31 16.096 168.646 15.3472 172.112C15.1335 173.131 14.9197 174.15 14.6995 175.2C14.4647 176.284 14.2298 177.367 13.9878 178.483C11.734 189.257 9.8342 200.032 8.23784 210.921C7.90784 210.921 7.57784 210.921 7.23784 210.921C6.9921 203.985 7.46181 197.559 8.80034 190.745C9.26249 187.762 9.30908 184.935 9.23784 181.921C9.89784 181.921 10.5578 181.921 11.2378 181.921C11.2752 181.303 11.3126 180.686 11.3511 180.05C11.8251 173.944 13.0438 168.634 15.2378 162.921Z" fill="#18DD81"/>
<path d="M203.238 86.921C200.238 88.921 200.238 88.921 197.839 89.8741C188.328 93.7015 179.972 100.975 171.876 107.121C170.698 108.006 170.698 108.006 169.496 108.909C168.796 109.441 168.096 109.972 167.375 110.52C165.08 112.024 162.812 112.986 160.238 113.921C164.464 109.397 169.18 105.812 174.175 102.171C175.013 101.56 175.85 100.949 176.713 100.319C181.796 96.6355 186.896 92.9762 192.113 89.4835C193.183 88.7629 194.253 88.0423 195.355 87.2999C198.59 85.7524 199.898 85.7811 203.238 86.921Z" fill="#18DD81"/>
<path d="M266.363 0.858589C267.714 0.863617 269.066 0.868178 270.417 0.872261C273.691 0.883952 276.964 0.900338 280.238 0.921089C280.238 1.25109 280.238 1.58109 280.238 1.92109C275.363 3.11955 270.48 3.26406 265.488 3.48359C264.568 3.52605 263.648 3.56851 262.7 3.61225C254.21 3.97587 245.734 4.02131 237.238 3.92109C245.702 -0.778796 257.011 0.798286 266.363 0.858589Z" fill="#18DD81"/>
<path d="M286.238 34.9209C286.568 34.9209 286.898 34.9209 287.238 34.9209C287.39 39.9758 286.878 44.4197 285.777 49.3506C285.626 50.0264 285.476 50.7022 285.32 51.3985C285.003 52.8127 284.682 54.2261 284.357 55.6387C283.86 57.8084 283.38 59.9814 282.902 62.1553C282.59 63.5331 282.278 64.9107 281.964 66.2881C281.682 67.537 281.399 68.786 281.107 70.0728C280.82 71.0126 280.533 71.9525 280.238 72.9209C279.248 73.4159 279.248 73.4159 278.238 73.9209C278.998 66.3617 280.623 59.0254 282.238 51.6084C282.511 50.3342 282.784 49.0599 283.066 47.7471C285.097 38.3431 285.097 38.3431 286.238 34.9209Z" fill="#18DD81"/>
<path d="M125.238 31.921C124.695 32.1872 124.152 32.4535 123.592 32.7278C113.269 37.8034 103.05 42.8982 93.2378 48.921C93.2378 47.931 93.2378 46.941 93.2378 45.921C99.223 42.5605 105.224 39.2293 111.238 35.921C112.862 35.0238 112.862 35.0238 114.519 34.1085C115.803 33.4278 115.803 33.4278 117.113 32.7335C117.832 32.348 118.551 31.9626 119.292 31.5655C121.669 30.7782 122.876 31.2416 125.238 31.921Z" fill="#18DD81"/>
<path d="M281.238 0.920898C284.868 0.920898 288.498 0.920898 292.238 0.920898C294.303 6.08349 294.151 8.48521 292.988 13.6084C292.785 14.6226 292.785 14.6226 292.578 15.6572C291.516 20.6426 291.516 20.6426 289.238 22.9209C289.211 21.4835 289.191 20.046 289.175 18.6084C289.164 17.8079 289.152 17.0074 289.14 16.1826C289.238 13.9209 289.238 13.9209 290.238 10.9209C290.304 9.5265 290.323 8.1292 290.3 6.7334C290.28 5.47527 290.259 4.21715 290.238 2.9209C287.268 2.5909 284.298 2.2609 281.238 1.9209C281.238 1.5909 281.238 1.2609 281.238 0.920898Z" fill="#18DD81"/>
<path d="M82.2378 180.921C82.2378 181.581 82.2378 182.241 82.2378 182.921C81.5778 182.921 80.9178 182.921 80.2378 182.921C80.2378 183.581 80.2378 184.241 80.2378 184.921C78.7339 186.401 78.7339 186.401 76.6753 188.108C71.5127 192.505 66.6759 197.064 62.4253 202.358C61.7034 203.204 60.9815 204.05 60.2378 204.921C59.5778 204.921 58.9178 204.921 58.2378 204.921C59.7743 201.282 61.962 198.939 64.7378 196.155C66.0681 194.821 66.0681 194.821 67.4253 193.46C68.8175 192.079 68.8175 192.079 70.2378 190.671C71.1659 189.735 72.094 188.799 73.0503 187.835C73.9372 186.951 74.824 186.066 75.7378 185.155C76.5525 184.343 77.3672 183.53 78.2065 182.693C80.2378 180.921 80.2378 180.921 82.2378 180.921Z" fill="#18DD81"/>
<path d="M161.238 131.921C161.898 132.581 162.558 133.241 163.238 133.921C157.958 139.201 152.678 144.481 147.238 149.921C146.248 149.591 145.258 149.261 144.238 148.921C149.904 143.254 155.571 137.588 161.238 131.921Z" fill="#18DD81"/>
<path d="M72.2378 229.921C72.2378 234.492 72.2378 234.492 71.2378 236.921C69.8053 238.158 68.3664 239.39 66.8706 240.55C64.2846 242.721 62.3283 245.277 60.2378 247.921C60.2378 243.701 62.5901 241.517 65.1128 238.358C65.8031 237.474 65.8031 237.474 66.5073 236.571C68.3315 234.247 70.1471 232.012 72.2378 229.921Z" fill="#18DD81"/>
<path d="M42.2378 268.921C42.8978 269.251 43.5578 269.581 44.2378 269.921C43.5275 270.874 42.8172 271.826 42.0854 272.808C41.1566 274.074 40.2283 275.341 39.3003 276.608C38.8317 277.234 38.3631 277.86 37.8804 278.505C35.3853 281.933 33.6286 284.572 33.2378 288.921C32.5778 288.921 31.9178 288.921 31.2378 288.921C31.651 283.207 33.9529 279.957 37.3003 275.546C37.7727 274.905 38.2452 274.265 38.7319 273.604C39.8907 272.036 41.0629 270.477 42.2378 268.921Z" fill="#18DD81"/>
<path d="M57.2378 248.921C57.8978 249.251 58.5578 249.581 59.2378 249.921C57.1191 252.738 54.9918 255.549 52.8628 258.358C52.2595 259.161 51.6562 259.963 51.0347 260.79C50.4546 261.554 49.8745 262.318 49.2769 263.104C48.7427 263.811 48.2085 264.518 47.6582 265.247C46.2378 266.921 46.2378 266.921 44.2378 267.921C45.7651 263.278 48.3037 259.943 51.3003 256.171C51.7598 255.582 52.2194 254.993 52.6929 254.386C56.0075 250.151 56.0075 250.151 57.2378 248.921Z" fill="#18DD81"/>
<path d="M277.238 74.9209C277.568 74.9209 277.898 74.9209 278.238 74.9209C277.848 81.4802 276.817 86.8662 274.238 92.9209C273.908 92.9209 273.578 92.9209 273.238 92.9209C273.749 86.4841 274.967 80.9615 277.238 74.9209Z" fill="#18DD81"/>
<path d="M14.2378 252.921C14.2378 256.954 12.629 258.756 10.2378 261.921C9.57779 261.921 8.91779 261.921 8.23779 261.921C7.90779 262.911 7.57779 263.901 7.23779 264.921C6.24779 264.591 5.25779 264.261 4.23779 263.921C7.53779 260.291 10.8378 256.661 14.2378 252.921Z" fill="#18DD81"/>
<path d="M161.238 131.921C161.898 132.581 162.558 133.241 163.238 133.921C161.952 135.26 160.659 136.592 159.363 137.921C158.643 138.663 157.924 139.406 157.183 140.171C155.238 141.921 155.238 141.921 153.238 141.921C154.737 138.105 157.036 136.383 160.238 133.921C160.568 133.261 160.898 132.601 161.238 131.921Z" fill="#18DD81"/>
<path d="M48.2378 213.921C48.2378 217.661 47.3036 218.374 44.8628 221.108C44.2363 221.824 43.6098 222.539 42.9644 223.276C41.2378 224.921 41.2378 224.921 39.2378 224.921C40.6462 221.706 42.3412 219.599 44.8628 217.171C45.4944 216.557 46.1261 215.944 46.7769 215.312C47.5 214.623 47.5 214.623 48.2378 213.921Z" fill="#18DD81"/>
<path d="M185.238 11.921C182.203 13.9445 181.044 14.2422 177.55 14.546C176.742 14.6208 175.934 14.6955 175.101 14.7725C174.486 14.8215 173.871 14.8705 173.238 14.921C174.238 12.921 174.238 12.921 175.863 12.296C179.004 11.8 182.064 11.8599 185.238 11.921Z" fill="#18DD81"/>
<path d="M81.2378 218.921C81.5678 219.581 81.8978 220.241 82.2378 220.921C79.9278 223.561 77.6178 226.201 75.2378 228.921C75.2378 225.332 75.9022 224.812 78.2378 222.233C78.7947 221.611 79.3515 220.988 79.9253 220.347C80.3584 219.876 80.7915 219.406 81.2378 218.921Z" fill="#18DD81"/>
<path d="M214.238 215.921C214.238 220.237 212.105 221.849 209.238 224.921C208.578 224.921 207.918 224.921 207.238 224.921C208.793 221.104 211.274 218.729 214.238 215.921Z" fill="#18DD81"/>
<path d="M96.2378 200.921C96.8978 200.921 97.5578 200.921 98.2378 200.921C96.7468 204.716 94.4808 206.531 91.2378 208.921C92.6072 205.971 94.1161 203.396 96.2378 200.921Z" fill="#18DD81"/>
<path d="M73.2378 53.9209C75.2378 54.9209 75.2378 54.9209 75.2378 54.9209L73.2378 53.9209Z" fill="#18DD81"/>
</svg>
